<svg  xmlns="http://www.w3.org/2000/svg" viewBox="0 0 128 128"><path fill="white" d="M113.7 4c1.3 0 2.5 0 3.8.1 3 .1 5.3 2 6 4.9.3 1.4.5 2.8.5 4.2v99.2c0 2.2-.2 4.4-.4 6.6-.2 2.4-3 4.7-5.8 4.9-1.4.1-2.7.1-4.1.1-1.3 0-2.5 0-3.8-.1-3.4-.2-5.8-3-5.8-6.7V72.3v-8.4-51.6-2c.1-3.6 2.4-6 6-6.2 1.2-.1 2.4-.1 3.6-.1m0-4c-1.3 0-2.6 0-3.8.1-5.7.3-9.6 4.3-9.8 10.1v107c0 5.9 4 10.4 9.6 10.7 1.3.1 2.7.1 4.1.1 1.4 0 2.8 0 4.3-.1 4.7-.2 9.1-4.1 9.6-8.5.2-2.2.4-4.6.4-7.1V13.1c0-1.7-.2-3.4-.6-5.1-1.1-4.7-4.9-7.8-9.8-8h-4zM47.1 51.8c1.6 0 3.1.2 4.7.5 3.4.8 5 2.8 5.3 6.2.1 1.6.1 3.3.1 5v54c-.4 4-2.8 6.3-6.8 6.4-1.2 0-2.3.1-3.5.1-1 0-2.1 0-3.1-.1-3.5-.2-5.5-2.1-6-5.6-.2-1.5-.4-3.1-.4-4.7V61.1c0-1.5.3-3.1.6-4.6.5-2 1.8-3.4 3.7-3.9 1.7-.5 3.5-.8 5.4-.8m0-4c-2.2 0-4.5.3-6.6.9-3.4 1-5.7 3.4-6.5 6.8-.5 2-.7 3.8-.7 5.5v52.5c0 1.6.1 3.2.4 5.2.8 5.4 4.4 8.8 9.8 9 1 0 2.1.1 3.3.1 1.3 0 2.5 0 3.6-.1 6-.1 10.1-4 10.7-10 .1-.8.1-1.5.1-2.1v-.5-33.5-18.3-1.2c0-1.3 0-2.6-.1-4-.4-5.2-3.3-8.6-8.4-9.8-1.9-.3-3.7-.5-5.6-.5zM81.4 68.6c.9 0 1.8 0 2.7.1 3.9.3 6.2 2.8 6.2 7.2.1 6.9 0 13.7 0 20.6v19.6c0 1.4-.4 2.7-.8 4.1-.8 2.5-2.8 3.6-5.3 3.7-1.3.1-2.5.1-3.8.1-1.2 0-2.4 0-3.6-.1-3.7-.3-6-2.6-6.4-6.3v-1.5-39.7c0-1.1.1-2.3.5-3.4.8-2.2 2.3-3.9 4.8-4.1 2-.1 3.9-.3 5.7-.3m0-4c-2.1 0-4.1.1-5.9.3-3.8.3-6.7 2.6-8.2 6.7-.5 1.4-.8 2.9-.8 4.8V116.3c0 .4 0 1 .1 1.6.6 5.7 4.4 9.5 10.1 9.9 1.3.1 2.6.1 3.9.1 1.3 0 2.7 0 4-.1 4.4-.3 7.6-2.6 8.8-6.5.5-1.6 1-3.3 1-5.2.1-4.9.1-9.8 0-14.6v-5.1-6.1c0-4.7 0-9.7-.1-14.5-.1-6.4-3.9-10.7-10-11.1-.8 0-1.8-.1-2.9-.1zM14.2 85.1c1 0 2 0 3 .1 3.2.1 6 2 6.4 5.6.1 1.5.4 2.9.4 4.4.1 3.2 0 6.4 0 9.7V116c0 2.4-.5 4.9-2.6 6.4-1.1.8-2.4 1.4-3.7 1.6-1.1.1-2.2.2-3.3.2-1.3 0-2.6-.1-3.8-.1-4-.2-6.4-2.6-6.4-6.6-.1-8.5-.1-17 0-25.5 0-4.1 2.7-6.6 6.7-6.7 1-.2 2.1-.2 3.3-.2m0-4c-1 0-2.2 0-3.5.1C4.4 81.3.1 85.6.1 91.7c-.1 8.2-.1 16.5 0 25.6.1 6.2 4.1 10.3 10.3 10.6h.2c1.2 0 2.5.1 3.8.1 1.4 0 2.6-.1 3.7-.2 2.3-.2 4.3-1.4 5.6-2.3 4.2-3 4.2-7.8 4.3-9.6V108v-3.3-2.8-7c0-1.3-.2-2.6-.3-3.8 0-.3-.1-.6-.1-1-.5-5.2-4.6-8.9-10.2-9.2-1.1.2-2.1.2-3.2.2z"/></svg>